<svg xmlns="http://www.w3.org/2000/svg" width="1024" height="1028" viewBox="0 0 1024 1028"><rect width="100%" height="100%" fill="#070B11"/><path fill="#06b6d4" d="M228.27 423.92h17.48l-6.69-18.28q-.49-1.21-1.02-2.88-.54-1.68-1.07-3.61-.49 1.93-1.02 3.63-.54 1.69-1.03 2.94l-6.65 18.2Zm13.95-34.2 21.58 54.95h-7.9q-1.33 0-2.17-.67-.84-.66-1.25-1.65l-4.11-11.21h-22.76l-4.1 11.21q-.31.88-1.18 1.6-.88.72-2.17.72h-7.98l21.62-54.95h10.42Zm53.65 27.36v17.48q1.6 1.94 3.48 2.74 1.88.8 4.08.8 2.13 0 3.84-.8t2.91-2.43q1.2-1.64 1.84-4.13.65-2.49.65-5.87 0-3.42-.55-5.79-.55-2.38-1.58-3.86t-2.49-2.17q-1.46-.68-3.32-.68-2.93 0-4.98 1.24-2.05 1.23-3.88 3.47Zm-1.25-9.69.76 3.61q2.39-2.7 5.43-4.37 3.04-1.67 7.15-1.67 3.19 0 5.83 1.33t4.56 3.86q1.92 2.52 2.96 6.23 1.05 3.7 1.05 8.49 0 4.37-1.18 8.1-1.18 3.72-3.36 6.46-2.19 2.73-5.29 4.27-3.09 1.54-6.93 1.54-3.27 0-5.59-1.01-2.31-1-4.14-2.79v15.96h-9.38v-51.72h5.73q1.83 0 2.4 1.71Zm35.34-1.71h9.42v38.99h-9.42v-38.99Zm10.71-11.36q0 1.22-.49 2.28-.49 1.06-1.31 1.86-.82.8-1.92 1.27-1.1.48-2.36.48-1.21 0-2.3-.48-1.08-.47-1.88-1.27-.79-.8-1.27-1.86-.47-1.06-.47-2.28 0-1.25.47-2.36.48-1.1 1.27-1.9.8-.79 1.88-1.27 1.09-.47 2.3-.47 1.26 0 2.36.47 1.1.48 1.92 1.27.82.8 1.31 1.9.49 1.11.49 2.36Zm38.69 16.19-2.47 3.42q-.42.53-.82.83-.4.31-1.16.31-.72 0-1.4-.44-.69-.44-1.64-.99t-2.26-.99q-1.31-.43-3.25-.43-2.47 0-4.33.89-1.86.89-3.1 2.57-1.23 1.67-1.84 4.04-.61 2.38-.61 5.38 0 3.12.67 5.55.66 2.43 1.92 4.08 1.25 1.66 3.04 2.51 1.78.86 4.02.86 2.25 0 3.63-.56 1.39-.55 2.34-1.21.95-.67 1.65-1.22.71-.55 1.58-.55 1.14 0 1.71.88l2.7 3.42q-1.56 1.82-3.38 3.06-1.83 1.23-3.79 1.97-1.95.74-4.02 1.05-2.07.3-4.13.3-3.61 0-6.8-1.35t-5.58-3.93q-2.4-2.59-3.79-6.33-1.38-3.74-1.38-8.53 0-4.29 1.23-7.96 1.24-3.67 3.63-6.35 2.4-2.68 5.93-4.2t8.13-1.52q4.37 0 7.66 1.41t5.91 4.03Zm19.23 34.77q-5.1 0-7.81-2.87-2.72-2.87-2.72-7.92v-21.78h-3.99q-.76 0-1.29-.49-.53-.5-.53-1.48v-3.73l6.27-1.02 1.97-10.64q.19-.76.72-1.18.54-.42 1.37-.42h4.87v12.27h10.41v6.69h-10.41v21.13q0 1.82.89 2.85t2.45 1.03q.87 0 1.46-.21t1.03-.44q.44-.23.78-.44t.68-.21q.42 0 .69.21.26.21.57.63l2.81 4.56q-2.05 1.71-4.71 2.58-2.66.88-5.51.88Zm39.48-39.6h9.38v38.99h-5.73q-1.87 0-2.36-1.71l-.65-3.12q-2.39 2.44-5.28 3.94t-6.8 1.5q-3.19 0-5.64-1.08-2.45-1.09-4.13-3.06-1.67-1.98-2.52-4.7-.86-2.71-.86-5.98v-24.78h9.39v24.78q0 3.57 1.65 5.53 1.65 1.95 4.96 1.95 2.43 0 4.56-1.08 2.13-1.08 4.03-2.98v-28.2Zm26.94 2.36.57 4.41q1.82-3.5 4.33-5.49 2.51-2 5.93-2 2.7 0 4.33 1.18l-.61 7.03q-.19.68-.55.97-.36.28-.97.28-.57 0-1.69-.19t-2.18-.19q-1.56 0-2.78.46-1.21.45-2.18 1.31-.97.85-1.71 2.07-.74 1.22-1.39 2.77v24.02h-9.38v-38.99h5.51q1.44 0 2.01.51.57.52.76 1.85Zm27.47 12.65h17.71q0-1.82-.51-3.44-.51-1.61-1.54-2.83-1.03-1.21-2.6-1.92-1.58-.7-3.67-.7-4.07 0-6.4 2.32-2.34 2.32-2.99 6.57Zm23.94 5.66h-24.13q.23 3.01 1.07 5.19.83 2.19 2.2 3.61 1.37 1.43 3.25 2.13t4.16.7q2.28 0 3.93-.53 1.66-.53 2.89-1.18 1.24-.64 2.17-1.18.93-.53 1.8-.53 1.18 0 1.75.88l2.7 3.42q-1.56 1.82-3.5 3.06-1.93 1.23-4.04 1.97-2.11.74-4.3 1.05-2.18.3-4.23.3-4.07 0-7.57-1.35-3.49-1.35-6.08-3.99-2.58-2.64-4.06-6.53-1.48-3.9-1.48-9.03 0-3.99 1.29-7.51 1.29-3.51 3.7-6.11 2.42-2.61 5.89-4.13 3.48-1.52 7.85-1.52 3.69 0 6.8 1.18 3.12 1.18 5.36 3.44t3.51 5.55q1.28 3.29 1.28 7.5 0 2.13-.46 2.87-.45.74-1.75.74Zm28.01-20.67h9.42v38.99h-9.42v-38.99Zm10.72-11.36q0 1.22-.5 2.28-.49 1.06-1.31 1.86-.82.8-1.92 1.27-1.1.48-2.35.48-1.22 0-2.3-.48-1.09-.47-1.88-1.27-.8-.8-1.28-1.86-.47-1.06-.47-2.28 0-1.25.47-2.36.48-1.1 1.28-1.9.79-.79 1.88-1.27 1.08-.47 2.3-.47 1.25 0 2.35.47 1.1.48 1.92 1.27.82.8 1.31 1.9.5 1.11.5 2.36Zm34.2 15.58-2.13 3.38q-.38.61-.8.86-.42.24-1.06.24-.69 0-1.47-.38t-1.8-.85q-1.03-.48-2.34-.86-1.31-.38-3.1-.38-2.77 0-4.35 1.18-1.57 1.18-1.57 3.08 0 1.25.81 2.11.82.85 2.17 1.5t3.06 1.16q1.71.51 3.47 1.12 1.77.61 3.48 1.39 1.71.78 3.06 1.97 1.35 1.2 2.17 2.87.81 1.67.81 4.03 0 2.81-1 5.19-1.01 2.37-2.99 4.1-1.97 1.73-4.88 2.7-2.91.97-6.71.97-2.01 0-3.93-.36-1.92-.36-3.69-1.01-1.76-.65-3.26-1.52-1.5-.87-2.64-1.9l2.16-3.57q.42-.65.99-.99.57-.34 1.44-.34.88 0 1.66.49.78.5 1.8 1.07 1.03.57 2.41 1.06 1.39.49 3.52.49 1.67 0 2.87-.4 1.2-.39 1.97-1.04.78-.65 1.14-1.5.37-.86.37-1.77 0-1.37-.82-2.24-.82-.87-2.17-1.52t-3.08-1.16q-1.72-.51-3.53-1.12-1.8-.61-3.53-1.42-1.73-.82-3.08-2.08-1.35-1.25-2.17-3.07-.81-1.83-.81-4.41 0-2.4.95-4.56.95-2.17 2.79-3.78 1.84-1.62 4.6-2.59 2.75-.97 6.36-.97 4.03 0 7.34 1.33 3.3 1.33 5.51 3.5Zm74.48-4.22h7.14l-12.39 38.99h-7.52q-1.29 0-1.79-1.67l-6.99-22.54q-.34-1.14-.63-2.26-.28-1.12-.47-2.26-.23 1.14-.52 2.3-.28 1.16-.62 2.3L632.93 443q-.45 1.67-2.01 1.67h-7.22l-12.35-38.99h7.48q1.03 0 1.75.5.72.49.95 1.25l5.59 20.82q.42 1.71.74 3.35.32 1.63.55 3.27.42-1.64.89-3.27.48-1.64 1.01-3.35l6.46-20.9q.23-.76.89-1.25.67-.49 1.62-.49h4.14q.99 0 1.69.49t.93 1.25l6.27 20.9q.5 1.71.93 3.37.44 1.65.86 3.28.49-3.23 1.4-6.65l5.74-20.82q.27-.76.95-1.25.69-.5 1.64-.5Zm29.71-.61q4.33 0 7.89 1.41 3.55 1.41 6.08 3.99 2.52 2.58 3.89 6.31 1.37 3.72 1.37 8.32 0 4.64-1.37 8.36-1.37 3.72-3.89 6.35-2.53 2.62-6.08 4.02-3.56 1.41-7.89 1.41-4.37 0-7.94-1.41-3.57-1.4-6.1-4.02-2.53-2.63-3.91-6.35-1.39-3.72-1.39-8.36 0-4.6 1.39-8.32 1.38-3.73 3.91-6.31 2.53-2.58 6.1-3.99 3.57-1.41 7.94-1.41Zm0 32.95q4.87 0 7.2-3.27 2.34-3.27 2.34-9.57 0-6.31-2.34-9.62-2.33-3.3-7.2-3.3-4.94 0-7.31 3.32-2.38 3.33-2.38 9.6t2.38 9.55q2.37 3.29 7.31 3.29Zm34.7-29.98.57 4.41q1.82-3.5 4.33-5.49 2.51-2 5.93-2 2.69 0 4.33 1.18l-.61 7.03q-.19.68-.55.97-.36.28-.97.28-.57 0-1.69-.19t-2.19-.19q-1.55 0-2.77.46-1.22.45-2.19 1.31-.96.85-1.71 2.07-.74 1.22-1.38 2.77v24.02h-9.39v-38.99h5.51q1.45 0 2.02.51.57.52.76 1.85Zm33.06 37.24q-5.1 0-7.81-2.87-2.72-2.87-2.72-7.92v-21.78h-3.99q-.76 0-1.29-.49-.53-.5-.53-1.48v-3.73l6.27-1.02 1.97-10.64q.19-.76.72-1.18.54-.42 1.37-.42h4.87v12.27h10.41v6.69h-10.41v21.13q0 1.82.89 2.85t2.45 1.03q.87 0 1.46-.21t1.03-.44q.44-.23.78-.44t.68-.21q.42 0 .69.21.26.21.57.63l2.81 4.56q-2.05 1.71-4.71 2.58-2.66.88-5.51.88Zm24.66-57.08v21.66q2.28-2.13 5.01-3.46 2.74-1.33 6.43-1.33 3.19 0 5.66 1.09 2.47 1.08 4.12 3.04 1.65 1.95 2.51 4.67.85 2.72.85 5.99v24.81h-9.38v-24.81q0-3.58-1.64-5.53-1.63-1.96-4.97-1.96-2.44 0-4.56 1.1-2.13 1.1-4.03 3v28.2h-9.39V388.2h9.39ZM228.71 525.8v-6.57q-4.07.19-6.84.7-2.78.51-4.45 1.31-1.67.8-2.39 1.86-.73 1.07-.73 2.32 0 2.47 1.47 3.53 1.46 1.07 3.82 1.07 2.88 0 4.99-1.05 2.11-1.04 4.13-3.17Zm-19.84-20.48-1.67-3q6.72-6.16 16.19-6.16 3.42 0 6.11 1.12 2.7 1.12 4.56 3.12 1.87 1.99 2.84 4.77.96 2.77.96 6.08v24.62h-4.25q-1.33 0-2.05-.4-.73-.4-1.14-1.61l-.84-2.82q-1.48 1.33-2.89 2.34-1.4 1.01-2.92 1.69-1.52.69-3.25 1.05-1.73.36-3.82.36-2.47 0-4.56-.67-2.09-.66-3.61-1.99t-2.36-3.31q-.83-1.97-.83-4.6 0-1.48.49-2.94t1.62-2.79q1.12-1.33 2.9-2.51 1.79-1.18 4.39-2.05 2.6-.88 6.06-1.43 3.46-.55 7.91-.66v-2.28q0-3.92-1.68-5.8-1.67-1.88-4.82-1.88-2.28 0-3.78.53t-2.64 1.2l-2.07 1.2q-.94.53-2.08.53-.98 0-1.67-.52-.68-.51-1.1-1.19Zm69.27 31.16q-5.09 0-7.8-2.87-2.72-2.87-2.72-7.92v-21.78h-3.99q-.76 0-1.29-.49-.54-.5-.54-1.48v-3.73l6.27-1.02 1.98-10.64q.19-.76.72-1.18.53-.42 1.37-.42H277v12.27h10.42v6.69H277v21.13q0 1.82.9 2.85.89 1.03 2.45 1.03.87 0 1.46-.21t1.03-.44q.43-.23.78-.44.34-.21.68-.21.42 0 .68.21.27.21.57.63l2.82 4.56q-2.06 1.71-4.72 2.58-2.66.88-5.51.88Zm24.67-57.08v21.66q2.28-2.13 5.01-3.46 2.74-1.33 6.42-1.33 3.2 0 5.67 1.09 2.47 1.08 4.12 3.04 1.65 1.95 2.51 4.67.85 2.72.85 5.99v24.81h-9.38v-24.81q0-3.58-1.64-5.53-1.63-1.96-4.98-1.96-2.43 0-4.56 1.1-2.12 1.1-4.02 3v28.2h-9.39V479.4h9.39Zm50.73 16.87q4.33 0 7.88 1.41t6.08 3.99q2.53 2.58 3.9 6.31 1.36 3.72 1.36 8.32 0 4.64-1.36 8.36-1.37 3.72-3.9 6.35-2.53 2.62-6.08 4.02-3.55 1.41-7.88 1.41-4.37 0-7.95-1.41-3.57-1.4-6.09-4.02-2.53-2.63-3.92-6.35-1.39-3.72-1.39-8.36 0-4.6 1.39-8.32 1.39-3.73 3.92-6.31 2.52-2.58 6.09-3.99 3.58-1.41 7.95-1.41Zm0 32.95q4.86 0 7.2-3.27 2.33-3.27 2.33-9.57 0-6.31-2.33-9.62-2.34-3.3-7.2-3.3-4.94 0-7.32 3.32-2.37 3.33-2.37 9.6t2.37 9.55q2.38 3.29 7.32 3.29Zm50.61-32.34h9.39v38.99h-5.74q-1.86 0-2.36-1.71l-.64-3.12q-2.4 2.44-5.28 3.94-2.89 1.5-6.81 1.5-3.19 0-5.64-1.08-2.45-1.09-4.12-3.06-1.67-1.98-2.53-4.7-.85-2.71-.85-5.98v-24.78h9.38v24.78q0 3.57 1.66 5.53 1.65 1.95 4.95 1.95 2.44 0 4.56-1.08 2.13-1.08 4.03-2.98v-28.2Zm44.58 4.22-2.13 3.38q-.38.61-.8.86-.42.24-1.06.24-.69 0-1.47-.38t-1.8-.85q-1.03-.48-2.34-.86-1.31-.38-3.1-.38-2.77 0-4.35 1.18-1.57 1.18-1.57 3.08 0 1.25.81 2.11.82.85 2.17 1.5t3.06 1.16q1.71.51 3.48 1.12 1.76.61 3.47 1.39 1.71.78 3.06 1.97 1.35 1.2 2.17 2.87.81 1.67.81 4.03 0 2.81-1 5.19-1.01 2.37-2.99 4.1-1.97 1.73-4.88 2.7-2.91.97-6.71.97-2.01 0-3.93-.36-1.92-.36-3.68-1.01-1.77-.65-3.27-1.52t-2.64-1.9l2.16-3.57q.42-.65.99-.99.57-.34 1.44-.34.88 0 1.66.49.78.5 1.8 1.07 1.03.57 2.42 1.06 1.38.49 3.51.49 1.67 0 2.87-.39 1.2-.4 1.98-1.05.77-.65 1.14-1.5.36-.86.36-1.77 0-1.37-.82-2.24-.82-.87-2.17-1.52t-3.07-1.16q-1.73-.51-3.54-1.12-1.8-.61-3.53-1.42-1.73-.82-3.08-2.08-1.35-1.25-2.17-3.07-.81-1.83-.81-4.41 0-2.4.95-4.56.95-2.17 2.79-3.78 1.84-1.62 4.6-2.59 2.75-.97 6.36-.97 4.03 0 7.34 1.33 3.3 1.33 5.51 3.5Zm28.08 24.7v-6.57q-4.07.19-6.84.7-2.78.51-4.45 1.31-1.67.8-2.39 1.86-.72 1.07-.72 2.32 0 2.47 1.46 3.53 1.46 1.07 3.82 1.07 2.89 0 5-1.05 2.1-1.04 4.12-3.17Zm-19.84-20.48-1.67-3q6.73-6.16 16.19-6.16 3.42 0 6.12 1.12 2.69 1.12 4.56 3.12 1.86 1.99 2.83 4.77.97 2.77.97 6.08v24.62h-4.26q-1.33 0-2.05-.4-.72-.4-1.14-1.61l-.84-2.82q-1.48 1.33-2.89 2.34-1.4 1.01-2.92 1.69-1.52.69-3.25 1.05-1.73.36-3.82.36-2.47 0-4.56-.67-2.09-.66-3.61-1.99t-2.36-3.31q-.83-1.97-.83-4.6 0-1.48.49-2.94.5-1.46 1.62-2.79t2.9-2.51q1.79-1.18 4.39-2.05 2.61-.88 6.06-1.43 3.46-.55 7.91-.66v-2.28q0-3.92-1.67-5.8-1.68-1.88-4.83-1.88-2.28 0-3.78.53t-2.64 1.2l-2.07 1.2q-.93.53-2.07.53-.99 0-1.68-.52-.68-.51-1.1-1.19Zm45.94-6.73.65 3.08q1.18-1.18 2.49-2.18 1.31-1.01 2.77-1.71 1.47-.71 3.14-1.11 1.67-.4 3.65-.4 3.19 0 5.66 1.09 2.47 1.08 4.12 3.04 1.65 1.95 2.51 4.67.85 2.72.85 5.99v24.81h-9.38v-24.81q0-3.58-1.64-5.53-1.63-1.96-4.97-1.96-2.44 0-4.56 1.1-2.13 1.1-4.03 3v28.2h-9.39v-38.99h5.74q1.82 0 2.39 1.71Zm59.21 25.73v-17.48q-1.6-1.94-3.48-2.74-1.88-.8-4.05-.8-2.12 0-3.83.8t-2.93 2.41q-1.22 1.62-1.86 4.11-.65 2.49-.65 5.87 0 3.42.55 5.8.55 2.37 1.58 3.87t2.51 2.17q1.48.66 3.3.66 2.93 0 4.98-1.21 2.05-1.22 3.88-3.46Zm0-44.92h9.38v56.47h-5.73q-1.87 0-2.36-1.71l-.8-3.76q-2.35 2.7-5.41 4.37t-7.13 1.67q-3.19 0-5.85-1.33-2.66-1.33-4.58-3.86-1.92-2.52-2.96-6.25-1.05-3.72-1.05-8.51 0-4.33 1.18-8.06 1.18-3.72 3.38-6.46 2.21-2.73 5.28-4.27 3.08-1.54 6.92-1.54 3.27 0 5.59 1.03 2.31 1.02 4.14 2.77V479.4Zm85.65 17.48h7.14l-12.38 38.99H635q-1.29 0-1.78-1.67l-7-22.54q-.34-1.14-.62-2.26-.29-1.12-.48-2.26-.23 1.14-.51 2.3-.29 1.16-.63 2.3l-7.1 22.46q-.46 1.67-2.02 1.67h-7.22l-12.35-38.99h7.49q1.02 0 1.75.5.72.49.95 1.25l5.58 20.82q.42 1.71.74 3.35.33 1.63.55 3.27.42-1.64.9-3.27.47-1.64 1-3.35l6.46-20.9q.23-.76.9-1.25.66-.49 1.61-.49h4.14q.99 0 1.7.49.7.49.93 1.25l6.27 20.9q.49 1.71.93 3.37.43 1.65.85 3.28.5-3.23 1.41-6.65l5.74-20.82q.26-.76.95-1.25.68-.5 1.63-.5Zm29.72-.61q4.33 0 7.88 1.41t6.08 3.99q2.53 2.58 3.9 6.31 1.36 3.72 1.36 8.32 0 4.64-1.36 8.36-1.37 3.72-3.9 6.35-2.53 2.62-6.08 4.02-3.55 1.41-7.88 1.41-4.37 0-7.95-1.41-3.57-1.4-6.09-4.02-2.53-2.63-3.92-6.35-1.39-3.72-1.39-8.36 0-4.6 1.39-8.32 1.39-3.73 3.92-6.31 2.52-2.58 6.09-3.99 3.58-1.41 7.95-1.41Zm0 32.95q4.86 0 7.2-3.27 2.33-3.27 2.33-9.57 0-6.31-2.33-9.62-2.34-3.3-7.2-3.3-4.94 0-7.32 3.32-2.37 3.33-2.37 9.6t2.37 9.55q2.38 3.29 7.32 3.29Zm34.69-29.98.57 4.41q1.82-3.5 4.33-5.49 2.51-2 5.93-2 2.7 0 4.33 1.18l-.61 7.03q-.19.68-.55.97-.36.28-.97.28-.57 0-1.69-.19t-2.18-.19q-1.56 0-2.78.46-1.21.45-2.18 1.31-.97.85-1.71 2.07-.74 1.22-1.39 2.77v24.02h-9.38v-38.99h5.51q1.44 0 2.01.52.57.51.76 1.84Zm44.54 25.08v-17.48q-1.6-1.94-3.48-2.74-1.88-.8-4.05-.8-2.13 0-3.83.8-1.72.8-2.93 2.41-1.22 1.62-1.86 4.11-.65 2.49-.65 5.87 0 3.42.55 5.8.55 2.37 1.58 3.87t2.51 2.17q1.48.66 3.3.66 2.93 0 4.98-1.21 2.05-1.22 3.88-3.46Zm0-44.92h9.38v56.47h-5.74q-1.86 0-2.35-1.71l-.8-3.76q-2.35 2.7-5.41 4.37t-7.13 1.67q-3.19 0-5.85-1.33-2.66-1.33-4.58-3.86-1.92-2.52-2.96-6.25-1.05-3.72-1.05-8.51 0-4.33 1.18-8.06 1.18-3.72 3.38-6.46 2.2-2.73 5.28-4.27 3.08-1.54 6.92-1.54 3.27 0 5.59 1.03 2.31 1.02 4.14 2.77V479.4Zm44.57 21.7-2.13 3.38q-.38.61-.8.86-.41.24-1.06.24-.68 0-1.46-.38-.78-.38-1.81-.85-1.02-.48-2.33-.86t-3.1-.38q-2.77 0-4.35 1.18-1.58 1.18-1.58 3.08 0 1.25.82 2.11.81.85 2.16 1.5t3.06 1.16q1.71.51 3.48 1.12 1.77.61 3.48 1.39 1.71.78 3.06 1.97 1.35 1.2 2.16 2.87.82 1.67.82 4.03 0 2.81-1.01 5.19-1 2.37-2.98 4.1-1.98 1.73-4.88 2.7-2.91.97-6.71.97-2.02 0-3.93-.36-1.92-.36-3.69-1.01t-3.27-1.52q-1.5-.87-2.64-1.9l2.17-3.57q.42-.65.99-.99.57-.34 1.44-.34t1.65.49q.78.5 1.81 1.07 1.02.57 2.41 1.06 1.39.49 3.51.49 1.68 0 2.87-.39 1.2-.4 1.98-1.05t1.14-1.5q.36-.86.36-1.77 0-1.37-.82-2.24-.81-.87-2.16-1.52t-3.08-1.16q-1.73-.51-3.53-1.12-1.81-.61-3.54-1.42-1.73-.82-3.08-2.08-1.34-1.25-2.16-3.07-.82-1.83-.82-4.41 0-2.4.95-4.56.95-2.17 2.79-3.78 1.85-1.62 4.6-2.59 2.76-.97 6.37-.97 4.02 0 7.33 1.33 3.31 1.33 5.51 3.5Zm8.97 45.56-1.64-1.48q-.68-.57-.68-1.41 0-.3.21-.68.21-.38.51-.68.42-.46 1.03-1.12.61-.67 1.21-1.53.61-.85 1.13-1.86.51-1 .77-2.14-1.21 0-2.2-.44-.99-.44-1.69-1.2t-1.1-1.78q-.4-1.03-.4-2.25 0-1.06.4-1.99.4-.93 1.12-1.63.72-.71 1.75-1.11 1.02-.4 2.24-.4 1.44 0 2.53.52 1.08.51 1.78 1.4.7.9 1.07 2.06.36 1.15.36 2.45 0 1.82-.55 3.83-.56 2.02-1.62 4.03-1.06 2.02-2.64 3.92t-3.59 3.49Zm-522.42 52.82v17.48q1.59 1.94 3.47 2.74 1.88.8 3.97.8 2.17 0 3.9-.78t2.94-2.43q1.22-1.66 1.87-4.22.64-2.57.64-6.14 0-6.42-2.13-9.29-2.12-2.87-6.11-2.87-2.7 0-4.72 1.24-2.01 1.23-3.83 3.47Zm0-28.88v22.27q2.35-2.47 5.22-3.93 2.87-1.47 6.56-1.47 3.38 0 6.09 1.33 2.72 1.33 4.64 3.82 1.92 2.49 2.95 6.03 1.02 3.53 1.02 7.94 0 4.75-1.18 8.62-1.17 3.88-3.36 6.64-2.18 2.75-5.26 4.27-3.08 1.52-6.84 1.52-1.83 0-3.31-.36t-2.73-1.01q-1.26-.64-2.3-1.57-1.05-.94-2-2.08l-.42 2.63q-.22.98-.78 1.4-.55.42-1.5.42h-6.19V570.6h9.39Zm57.95 17.48h9.38v38.99h-5.74q-1.86 0-2.35-1.71l-.65-3.12q-2.39 2.44-5.28 3.94t-6.8 1.5q-3.19 0-5.65-1.08-2.45-1.09-4.12-3.06-1.67-1.98-2.53-4.7-.85-2.71-.85-5.98v-24.78h9.39v24.78q0 3.57 1.65 5.53 1.65 1.95 4.96 1.95 2.43 0 4.56-1.08 2.13-1.08 4.03-2.98v-28.2Zm31.65 39.6q-5.09 0-7.81-2.87-2.72-2.87-2.72-7.92v-21.78h-3.99q-.76 0-1.29-.49-.53-.5-.53-1.48v-3.73l6.27-1.02 1.98-10.64q.19-.76.72-1.18.53-.42 1.37-.42h4.86v12.27h10.41v6.69H376.3v21.13q0 1.82.89 2.85.9 1.03 2.45 1.03.88 0 1.47-.21t1.02-.44q.44-.23.78-.44t.69-.21q.41 0 .68.21.27.21.57.63l2.81 4.56q-2.05 1.71-4.71 2.58-2.66.88-5.51.88Zm41.88-37.89.64 3.08q1.18-1.18 2.49-2.18 1.31-1.01 2.77-1.71 1.47-.71 3.14-1.11 1.67-.4 3.65-.4 3.19 0 5.66 1.09 2.47 1.08 4.12 3.04 1.66 1.95 2.51 4.67.86 2.72.86 5.99v24.81h-9.39v-24.81q0-3.58-1.63-5.53-1.64-1.96-4.98-1.96-2.43 0-4.56 1.1-2.13 1.1-4.03 3v28.2h-9.39v-38.99h5.74q1.83 0 2.4 1.71Zm51.98-2.32q4.33 0 7.88 1.41 3.56 1.41 6.08 3.99 2.53 2.58 3.9 6.31 1.37 3.72 1.37 8.32 0 4.64-1.37 8.36-1.37 3.72-3.9 6.35-2.52 2.62-6.08 4.02-3.55 1.41-7.88 1.41-4.37 0-7.94-1.41-3.57-1.4-6.1-4.02-2.53-2.63-3.92-6.35-1.38-3.72-1.38-8.36 0-4.6 1.38-8.32 1.39-3.73 3.92-6.31 2.53-2.58 6.1-3.99 3.57-1.41 7.94-1.41Zm0 32.95q4.86 0 7.2-3.27t2.34-9.57q0-6.31-2.34-9.62-2.34-3.3-7.2-3.3-4.94 0-7.32 3.32-2.37 3.33-2.37 9.6t2.37 9.55q2.38 3.29 7.32 3.29Zm39.41 7.26q-5.1 0-7.81-2.87-2.72-2.87-2.72-7.92v-21.78h-3.99q-.76 0-1.29-.49-.53-.5-.53-1.48v-3.73l6.27-1.02 1.97-10.64q.19-.76.72-1.18.54-.42 1.37-.42h4.87v12.27h10.41v6.69h-10.41v21.13q0 1.82.89 2.85t2.45 1.03q.87 0 1.46-.21t1.03-.44q.44-.23.78-.44t.68-.21q.42 0 .69.21.26.21.57.63l2.81 4.56q-2.05 1.71-4.71 2.58-2.66.88-5.51.88Zm46.74 0q-5.1 0-7.81-2.87-2.72-2.87-2.72-7.92v-21.78h-3.99q-.76 0-1.29-.49-.53-.5-.53-1.48v-3.73l6.27-1.02 1.97-10.64q.19-.76.72-1.18.54-.42 1.37-.42h4.87v12.27h10.41v6.69h-10.41v21.13q0 1.82.89 2.85t2.45 1.03q.87 0 1.46-.21t1.03-.44q.44-.23.78-.44t.68-.21q.42 0 .69.21.26.21.57.63l2.81 4.56q-2.05 1.71-4.71 2.58-2.66.88-5.51.88Zm32.52-40.21q4.34 0 7.89 1.41t6.08 3.99q2.53 2.58 3.89 6.31 1.37 3.72 1.37 8.32 0 4.64-1.37 8.36-1.36 3.72-3.89 6.35-2.53 2.62-6.08 4.02-3.55 1.41-7.89 1.41-4.37 0-7.94-1.41-3.57-1.4-6.1-4.02-2.52-2.63-3.91-6.35-1.39-3.72-1.39-8.36 0-4.6 1.39-8.32 1.39-3.73 3.91-6.31 2.53-2.58 6.1-3.99 3.57-1.41 7.94-1.41Zm0 32.95q4.87 0 7.2-3.27 2.34-3.27 2.34-9.57 0-6.31-2.34-9.62-2.33-3.3-7.2-3.3-4.94 0-7.31 3.32-2.38 3.33-2.38 9.6t2.38 9.55q2.37 3.29 7.31 3.29Zm50.89-4.9v-17.48q-1.6-1.94-3.48-2.74-1.88-.8-4.05-.8-2.13 0-3.84.8t-2.92 2.42q-1.22 1.61-1.86 4.1-.65 2.49-.65 5.87 0 3.42.55 5.79.55 2.38 1.58 3.88 1.02 1.5 2.51 2.17 1.48.66 3.3.66 2.93 0 4.98-1.21 2.05-1.22 3.88-3.46Zm0-44.92h9.38v56.47h-5.74q-1.86 0-2.35-1.71l-.8-3.76q-2.36 2.7-5.42 4.37-3.05 1.67-7.12 1.67-3.19 0-5.85-1.33-2.66-1.33-4.58-3.86-1.92-2.52-2.97-6.25-1.04-3.72-1.04-8.51 0-4.33 1.18-8.06 1.18-3.72 3.38-6.46 2.2-2.73 5.28-4.27 3.08-1.54 6.92-1.54 3.27 0 5.58 1.03 2.32 1.02 4.15 2.77V570.6Zm39.25 46.4v-6.57q-4.07.19-6.84.7-2.77.51-4.45 1.31-1.67.8-2.39 1.86-.72 1.07-.72 2.32 0 2.47 1.46 3.53 1.46 1.07 3.82 1.07 2.89 0 5-1.05 2.11-1.04 4.12-3.17Zm-19.84-20.48-1.67-3q6.73-6.16 16.19-6.16 3.42 0 6.12 1.12t4.56 3.12q1.86 1.99 2.83 4.77.97 2.77.97 6.08v24.62h-4.26q-1.33 0-2.05-.4-.72-.4-1.14-1.61l-.84-2.82q-1.48 1.33-2.88 2.34-1.41 1.01-2.93 1.69-1.52.69-3.25 1.05-1.73.36-3.82.36-2.47 0-4.56-.67-2.09-.66-3.61-1.99t-2.35-3.31q-.84-1.97-.84-4.6 0-1.48.49-2.94.5-1.46 1.62-2.79t2.91-2.51q1.78-1.18 4.38-2.05 2.61-.88 6.07-1.43 3.45-.55 7.9-.66v-2.28q0-3.92-1.67-5.8t-4.83-1.88q-2.28 0-3.78.53t-2.64 1.2l-2.07 1.2q-.93.53-2.07.53-.99 0-1.67-.51-.69-.52-1.11-1.2Zm65.71-8.44h7.52l-21.24 49.71q-.42.98-1.09 1.5-.66.51-2.03.51h-6.99l7.3-15.66-15.77-36.06h8.24q1.1 0 1.73.53.63.54.93 1.22l8.29 20.22q.41 1.02.7 2.05.28 1.02.55 2.09.34-1.07.68-2.11.35-1.05.76-2.07l7.83-20.18q.31-.76 1.01-1.25.7-.5 1.58-.5Zm10.83 33.82q0-1.18.43-2.24.44-1.06 1.2-1.82t1.82-1.22q1.07-.46 2.28-.46 1.22 0 2.26.46 1.05.46 1.83 1.22t1.23 1.82q.46 1.06.46 2.24 0 1.22-.46 2.26-.45 1.05-1.23 1.81t-1.83 1.2q-1.04.43-2.26.43-1.21 0-2.28-.43-1.06-.44-1.82-1.2t-1.2-1.81q-.43-1.04-.43-2.26Z"/></svg>